<?xml version="1.0" encoding="UTF-8"?> <svg xmlns="http://www.w3.org/2000/svg" width="38" height="64" viewBox="0 0 38 64" fill="none"><path d="M18.7791 36.7062C26.286 36.7062 32.3932 30.574 32.3932 23.0366C32.3932 20.6485 31.7673 18.3133 30.6033 16.2624L32.3695 3.018C32.4711 2.25666 32.2404 1.48786 31.7366 0.90984C31.2327 0.33182 30.5053 0 29.74 0H7.81791C7.05261 0 6.32481 0.33182 5.82098 0.90984C5.31714 1.48786 5.0861 2.25666 5.18765 3.018L6.95425 16.2645C5.79055 18.3147 5.16429 20.6496 5.16429 23.0366C5.16429 30.5743 11.2719 36.7062 18.7791 36.7062ZM18.7791 31.3772C14.1983 31.3772 10.4712 27.6355 10.4712 23.0366C10.4712 21.4567 10.9258 19.9181 11.7552 18.5951H25.8034C26.6321 19.9184 27.086 21.4567 27.086 23.0366C27.0864 27.6355 23.3596 31.3772 18.7791 31.3772ZM26.7071 5.32901L25.6488 13.2664H11.9087L10.8505 5.32901H26.7071Z" fill="#29C093"></path><path d="M24.3843 39.0155H13.2631C5.94977 39.0155 0 44.99 0 52.3337V61.3355C0 62.807 1.18811 64 2.65362 64C4.11912 64 5.30724 62.807 5.30724 61.3355V52.3337C5.30724 49.1775 7.13965 46.4434 9.7922 45.1463L16.3463 62.2812C16.7401 63.3108 17.7251 63.9904 18.8237 63.9904C19.922 63.9904 20.9073 63.3108 21.3008 62.2812L27.8549 45.1463C30.5071 46.443 32.3398 49.1775 32.3398 52.3337V61.3355C32.3398 62.807 33.5276 64 34.9934 64C36.4593 64 37.6471 62.807 37.6471 61.3355V52.3337C37.6467 44.9904 31.6973 39.0155 24.3843 39.0155ZM18.8234 53.8944L15.1706 44.3448H22.4761L18.8234 53.8944Z" fill="#29C093"></path><path d="M16.7737 10.5401H17.5404V11.3103C17.5404 11.997 18.0948 12.5537 18.7788 12.5537C19.4627 12.5537 20.0171 11.997 20.0171 11.3103V10.5401H20.7838C21.4678 10.5401 22.0222 9.98337 22.0222 9.29664C22.0222 8.60991 21.4678 8.0532 20.7838 8.0532H20.0171V7.28369C20.0171 6.59696 19.4627 6.04026 18.7788 6.04026C18.0948 6.04026 17.5404 6.59696 17.5404 7.28369V8.0532H16.7737C16.0898 8.0532 15.5353 8.60991 15.5353 9.29664C15.5353 9.98337 16.0898 10.5401 16.7737 10.5401Z" fill="#29C093"></path></svg> 