<?xml version="1.0" encoding="UTF-8"?> <svg xmlns="http://www.w3.org/2000/svg" width="64" height="58" viewBox="0 0 64 58" fill="none"><path d="M61.6012 52.7728H57.9592V14.1664C57.9592 12.8428 56.8855 11.7698 55.5605 11.7698H46.179V2.39665C46.179 1.07306 45.1053 0 43.7802 0H20.2198C18.8947 0 17.821 1.07306 17.821 2.39665V11.7698H8.43954C7.11477 11.7698 6.04076 12.8428 6.04076 14.1664V52.7728H2.39878C1.07369 52.7728 0 53.8459 0 55.1695C0 56.4931 1.07369 57.5661 2.39878 57.5661H61.6012C62.9263 57.5661 64 56.4931 64 55.1695C64 53.8459 62.926 52.7728 61.6012 52.7728ZM22.6185 4.79329H41.3815V23.5395H22.6185V4.79329ZM25.5633 52.7728V40.2604H29.6012V52.7728H25.5633ZM34.3988 52.7728V40.2604H38.4361V52.7728H34.3988ZM43.2336 52.7728V37.8638C43.2336 36.5402 42.1599 35.4672 40.8349 35.4672H23.1645C21.8394 35.4672 20.7657 36.5402 20.7657 37.8638V52.7728H10.8383V16.5631H17.821V25.9362C17.821 27.2598 18.8947 28.3328 20.2198 28.3328H43.7802C45.1053 28.3328 46.179 27.2598 46.179 25.9362V16.5631H53.1617V52.7728H43.2336Z" fill="#29C093"></path><path d="M26.9581 16.5631H29.6012V19.2038C29.6012 20.5274 30.6749 21.6005 32 21.6005C33.3251 21.6005 34.3988 20.5274 34.3988 19.2038V16.5631H37.0419C38.367 16.5631 39.4407 15.49 39.4407 14.1664C39.4407 12.8428 38.367 11.7698 37.0419 11.7698H34.3988V9.12898C34.3988 7.80539 33.3251 6.73234 32 6.73234C30.6749 6.73234 29.6012 7.80539 29.6012 9.12898V11.7698H26.9581C25.633 11.7698 24.5593 12.8428 24.5593 14.1664C24.5593 15.49 25.6333 16.5631 26.9581 16.5631Z" fill="#29C093"></path></svg> 