<?xml version="1.0" encoding="UTF-8"?> <svg xmlns="http://www.w3.org/2000/svg" width="64" height="42" viewBox="0 0 64 42" fill="none"><path d="M63.6262 17.2239L52.4693 0.930429C52.0707 0.348162 51.4103 0 50.7045 0H2.13859C0.957233 0 0 0.957518 0 2.13859V33.7532C0 34.9343 0.957233 35.8918 2.13859 35.8918H8.65302C9.94302 39.1989 13.1614 41.5494 16.9205 41.5494C20.679 41.5494 23.8969 39.1989 25.1866 35.8918H37.3192C38.609 39.1989 41.8265 41.5494 45.5847 41.5494C49.343 41.5494 52.5603 39.1989 53.85 35.8918H61.8614C63.0428 35.8918 64 34.9343 64 33.7532V18.4321C64 18.0009 63.8697 17.5798 63.6262 17.2239ZM16.9205 37.2722C14.6818 37.2722 12.8153 35.6634 12.4098 33.5428C12.4021 33.4649 12.3904 33.3882 12.3747 33.313C12.3456 33.1056 12.3257 32.8955 12.3257 32.6802C12.3257 30.1461 14.387 28.0845 16.9205 28.0845C19.4535 28.0845 21.5139 30.1461 21.5139 32.6802C21.5139 32.8952 21.494 33.1054 21.4652 33.3127C21.4492 33.3879 21.4372 33.4649 21.4298 33.5428C21.0246 35.6637 19.1583 37.2722 16.9205 37.2722ZM45.5847 37.2722C43.3455 37.2722 41.4784 35.6608 41.0752 33.5376C41.0678 33.4632 41.0564 33.3899 41.0415 33.3181C41.0124 33.1091 40.9919 32.8972 40.9919 32.6802C40.9919 30.1461 43.0524 28.0845 45.5847 28.0845C48.1171 28.0845 50.177 30.1461 50.177 32.6802C50.1773 35.2123 48.1171 37.2722 45.5847 37.2722ZM59.7228 31.6146H54.388C53.8597 27.2231 50.1146 23.8073 45.5847 23.8073C41.0544 23.8073 37.309 27.2231 36.7809 31.6146H25.725C25.1966 27.2231 21.4509 23.8073 16.9205 23.8073C12.3893 23.8073 8.64304 27.2231 8.11466 31.6146H4.27718V4.27718H49.5771L59.7228 19.0939V31.6146Z" fill="#29C093"></path><path d="M47.6161 5.6128H43.305C42.1236 5.6128 41.1664 6.57032 41.1664 7.75139V20.1378C41.1664 21.3189 42.1236 22.2764 43.305 22.2764H55.6167C56.3997 22.2764 57.1203 21.8484 57.495 21.1606C57.8694 20.4729 57.838 19.6354 57.4131 18.9776L49.4125 6.59113C49.0187 5.98121 48.3421 5.6128 47.6161 5.6128ZM45.4436 17.9992V9.88998H46.4516L51.6894 17.9992H45.4436Z" fill="#29C093"></path><path d="M27.7783 11.904H24.8601V8.98578C24.8601 7.80471 23.9029 6.84719 22.7215 6.84719C21.5402 6.84719 20.5829 7.80471 20.5829 8.98578V11.904H17.665C16.484 11.904 15.5264 12.8615 15.5264 14.0425C15.5264 15.2236 16.484 16.1811 17.665 16.1811H20.5829V19.099C20.5829 20.2801 21.5402 21.2376 22.7215 21.2376C23.9029 21.2376 24.8601 20.2801 24.8601 19.099V16.1811H27.7783C28.9596 16.1811 29.9169 15.2236 29.9169 14.0425C29.9169 12.8615 28.9596 11.904 27.7783 11.904Z" fill="#29C093"></path></svg> 